<?xml version="1.0" encoding="UTF-8" standalone="no"?>
<svg
   xmlns:dc="http://purl.org/dc/elements/1.1/"
   xmlns:cc="http://creativecommons.org/ns#"
   xmlns:rdf="http://www.w3.org/1999/02/22-rdf-syntax-ns#"
   xmlns:svg="http://www.w3.org/2000/svg"
   xmlns="http://www.w3.org/2000/svg"
   viewBox="0 0 793.76001 1122.5601"
   height="1122.5601"
   width="793.76001"
   xml:space="preserve"
   id="svg2"
   version="1.1"><metadata
     id="metadata8"><rdf:RDF><cc:Work
         rdf:about=""><dc:format>image/svg+xml</dc:format><dc:type
           rdf:resource="http://purl.org/dc/dcmitype/StillImage" /></cc:Work></rdf:RDF></metadata><defs
     id="defs6"><clipPath
       id="clipPath18"
       clipPathUnits="userSpaceOnUse"><path
         style="clip-rule:evenodd"
         id="path16"
         d="M 0.16,0 V 1122.5601 H 793.76001 V 0 Z" /></clipPath><clipPath
       id="clipPath62"
       clipPathUnits="userSpaceOnUse"><path
         style="clip-rule:evenodd"
         id="path60"
         d="M -761.94,-32.330002 V 1090.23 H 31.66 V -32.330002 Z" /></clipPath></defs><g
     transform="translate(0,6.9397335e-5)"
     id="g10"><g
       id="g12"><g
         clip-path="url(#clipPath18)"
         id="g14"><g
           transform="translate(80.239998,100.41)"
           id="g20"><path
             id="path22"
             style="fill:#000000;fill-opacity:1;fill-rule:nonzero;stroke:#000000;stroke-width:0.32100001;stroke-linecap:butt;stroke-linejoin:miter;stroke-miterlimit:10;stroke-dasharray:none;stroke-opacity:1"
             d="M 0,0 V 23.389999 H 5.45 V 22.59 H 1.61 V 0.8 H 5.45 V 0 Z" /></g><g
           id="g24"><path
             id="path26"
             style="fill:#000000;fill-opacity:1;fill-rule:nonzero;stroke:#000000;stroke-width:0.32100001;stroke-linecap:butt;stroke-linejoin:miter;stroke-miterlimit:10;stroke-dasharray:none;stroke-opacity:1"
             d="M 95.150002,106.82 102.04,106.66 v 4.16 h -6.889998 z m -1.599999,-2.4 0.159996,0.16 v 4.96 2.73 c 0,0.8 0.160004,1.12 0.480003,0.96 0.479996,-0.16 0.799996,-0.64 0.96,-1.6 L 102.04,111.47 c 0,0.96 0.16,1.28 0.48,1.28 0.16,0 0.48,-0.32 0.64,-0.96 0.32,-0.32 0.32,-1.45 0.32,-3.53 0,-1.28 0,-3.04 0,-5.12 l 0.16,-0.49 c 0,-0.16 0,-0.32 0,-0.32 0,-0.16 -0.16,-0.32 -0.32,-0.32 -0.16,-0.16 -0.48,-0.16 -0.8,-0.32 -0.48,0 -1.12,-0.16 -1.76,-0.16 -0.64,0 -0.959997,0.16 -0.959997,0.32 0,0.16 0.159996,0.16 0.479997,0.32 0.64,0.32 0.96,0.48 1.28,0.64 0.16,0.16 0.32,0.33 0.48,0.49 v 2.56 l -6.889998,0.16 v -2.08 l 0.159996,-0.32 c 0,-0.32 -0.159996,-0.48 -0.32,-0.65 -0.479996,-0.16 -1.279999,-0.16 -2.89,-0.32 -0.479995,0.16 -0.799995,0.16 -0.799995,0.32 0,0.17 0.159996,0.33 0.479996,0.49 0.639999,0.16 0.970001,0.32 1.290001,0.48 0.319999,0.16 0.480003,0.32 0.480003,0.48 z M 109.25,102.01 v 2.57 c -0.96,0.16 -1.76,0.16 -2.24,0.16 -0.64,0 -1.6,0 -2.72,0 -0.48,0 -0.81,0 -0.81,0 -0.16,0.16 0,0.32 0.49,0.64 0.8,0.32 1.28,0.48 1.44,0.48 0.16,0 0.32,0 0.48,-0.16 0.16,0 0.32,0 0.32,0 0.16,0 0.16,-0.16 0.32,-0.16 0.48,0 0.8,0 1.12,0 0.48,-0.16 0.96,-0.16 1.6,-0.16 v 3.84 c -0.8,0 -1.6,0 -2.4,0 -0.64,0.16 -1.44,0.16 -2.4,0.16 -0.64,-0.16 -0.97,-0.16 -0.97,0 -0.16,0.16 0,0.32 0.49,0.48 0.8,0.32 1.28,0.64 1.6,0.64 0.16,0 0.32,0 0.48,-0.16 0.16,0 0.16,-0.16 0.32,-0.16 0,0 0.16,0 0.16,0 l 1.44,-0.16 h 1.28 v 1.93 c 0,0.8 0,1.28 0.16,1.6 0.17,0.32 0.33,0.16 0.65,-0.32 0.16,-0.32 0.32,-0.8 0.48,-1.28 0.16,-0.81 0.16,-1.77 0.32,-2.89 v -7.37 l 0.16,-0.48 c 0,-0.32 0,-0.48 0,-0.64 -0.16,-0.16 -0.48,-0.32 -0.96,-0.48 -0.32,-0.16 -0.81,-0.16 -1.61,-0.320003 -0.64,-0.159996 -1.28,-0.32 -1.6,-0.32 -0.64,0.160004 -0.8,0.32 -0.8,0.480003 0.16,0 0.32,0.16 0.8,0.32 v 0 c 0.64,0.32 1.28,0.48 1.6,0.8 0.48,0.32 0.64,0.64 0.8,0.96 z M 99,119.96 v 2.24 c 0,0.48 0.160004,0.8 0.32,1.12 0.480003,0.32 1.12,0.32 1.92,0.32 h 10.74 c 0.64,0 0.96,-0.16 0.96,-0.48 0,-0.48 -0.32,-0.64 -0.96,-0.8 -0.8,0 -1.44,0 -1.76,0 -0.32,0 -0.48,0.16 -0.81,0.32 -0.16,0 -0.32,0.16 -0.48,0.16 -0.16,0 -0.48,0.16 -0.8,0.16 -1.28,0 -2.56,0.16 -4,0.16 -1.13,0 -2.09,0 -2.89,0 -0.16,0 -0.32,-0.16 -0.48,-0.16 -0.16,-0.16 -0.16,-0.32 -0.16,-0.48 v -2.4 c 0,-0.16 0,-0.16 0,-0.32 0.16,0 0.16,0 0.32,0 l 0.16,-0.16 c 1.12,0 2.73,0 4.65,0 0.96,0 2.4,-0.17 4.01,-0.17 h 0.16 c 0.64,0 0.96,-0.16 0.96,-0.32 0,-0.32 -0.48,-0.48 -1.12,-0.64 0.16,-0.48 0.32,-0.96 0.48,-1.44 0.16,-0.48 0.32,-0.96 0.48,-1.44 l 0.16,-0.32 c 0.16,-0.16 0.16,-0.32 0.16,-0.48 0,-0.16 -0.32,-0.32 -0.96,-0.32 -0.32,0 -0.65,0 -0.81,0 -0.16,0 -0.32,0 -0.32,0.16 h -0.48 c -1.92,0.16 -3.84,0.32 -5.77,0.32 -2.08,0 -3.68,0 -4.809997,-0.16 -0.480004,0 -0.800003,0 -0.800003,0.16 0,0 0.160003,0.16 0.480003,0.32 0.969994,0.48 1.610001,0.8 1.93,0.8 0.159996,0 0.479996,0 0.799997,-0.16 0,0 0.16,-0.16 0.32,-0.16 0.16,0 0.32,0 0.48,0 l 1.28,-0.16 c 1.77,0 2.89,-0.16 3.69,-0.16 1.28,0 2.24,0 2.88,0 0,0.48 0,1.12 0,1.92 -0.16,0.48 -0.16,0.96 -0.16,1.28 h -0.32 c -0.32,0.16 -0.32,0.16 -0.48,0.16 -0.16,0 -0.48,0 -0.64,0 -1.12,0.16 -2.24,0.16 -3.36,0.16 -0.65,0 -1.61,0 -3.21,0 -0.16,-0.16 -0.48,-0.16 -1.120001,-0.32 -0.639999,0 -1.279998,0 -1.769996,0 -0.64,0.16 -0.959999,0.32 -0.959999,0.32 0,0.16 0.159996,0.16 0.639999,0.32 0.32,0.16 0.809998,0.16 0.969994,0.33 C 98.68,119.8 98.839996,119.8 99,119.96 Z" /></g><g
           id="g28"><path
             id="path30"
             style="fill:#000000;fill-opacity:1;fill-rule:nonzero;stroke:#000000;stroke-width:0.32100001;stroke-linecap:butt;stroke-linejoin:miter;stroke-miterlimit:10;stroke-dasharray:none;stroke-opacity:1"
             d="m 124.8,103.14 h 0.8 c 0.48,0 0.97,0 1.45,0 0.8,0 1.44,0 1.92,0 0.31999,-0.17 0.48,-0.49 0.31999,-0.81 0,-0.32 -0.31999,-0.48 -0.79999,-0.48 -1.44,0 -2.57,0 -3.37,-0.16 -0.8,0 -1.44,-0.16 -1.92,-0.32 -0.32,0 -0.64,0 -0.64,0 -0.16,0.16 0,0.32 0.32,0.48 0.32,0.48 0.8,0.8 1.12,0.96 0.32,0.16 0.48,0.33 0.8,0.33 z m 3.05,2.88 h 0.79999 c -1.11999,1.76 -2.72999,3.52 -4.80999,5.29 -1.76,1.44 -3.53,2.72 -5.29,3.68 -0.32,0.16 -0.48,0.16 -0.48,0.32 0,0 0.32,0 0.64,-0.16 1.6,-0.48 3.21,-1.44 4.81,-2.4 1.28,-0.8 2.4,-1.77 3.53,-2.73 0.16,0.16 0.48,0.48 0.8,0.8 0.15999,0.32 0.48,0.65 0.96,1.29 0.32,0.48 0.47999,0.96 0.8,1.12 0.16,0.32 0.48,0.64 0.64,0.96 0.16,0 0.16,0.16 0.32001,0.16 0.15999,0 0.31999,0 0.47999,0 0.16001,-0.16 0.16001,-0.16 0.31999,-0.48 0,-0.16 -0.15998,-0.48 -0.15998,-0.8 -0.32001,-0.64 -0.48001,-0.96 -0.80001,-1.28 -0.32,-0.16 -0.48001,-0.48 -0.96,-0.65 -0.48,-0.16 -0.64,-0.48 -0.96,-0.64 -0.32,-0.32 -0.64,-0.64 -0.8,-1.12 l 0.64,-0.64 c 0.48,-0.64 0.8,-0.96 1.12,-1.28 0.47999,-0.48 0.8,-0.96 1.12001,-1.6 0.31999,-0.16 0.47999,-0.32 0.64,-0.48 0,-0.16 -0.32001,-0.16 -0.80001,-0.16 -0.64,-0.16 -0.96,-0.16 -1.28,-0.16 -0.16,0 -0.16,0.16 -0.32,0.16 l -0.48,0.16 c -1.12,0 -2.57,0.16 -4.49,0.16 -2.08,0 -3.37,0 -4.17,-0.16 -0.48,-0.16 -0.8,-0.16 -0.8,0 0,0.16 0.16,0.32 0.48,0.48 0.96,0.48 1.61,0.8 1.93,0.8 0.32,0.16 0.48,0 0.64,0 0.16,-0.16 0.16,-0.16 0.16,-0.16 0.16,0 0.32,0 0.48,-0.16 l 1.44,-0.16 z m 7.53,-4.49 v 7.21 c -0.64,0 -1.44,0.16 -2.24,0.16 -1.12,0 -2.09,0 -2.73,0 -0.64,0 -0.8,0 -0.8,0 0,0.16 0.31999,0.32 0.96001,0.64 0.47999,0.32 0.79998,0.48 0.95999,0.48 0.16,0 0.32001,0 0.64999,-0.16 0,0 0.16001,-0.16 0.32001,-0.16 0.16,0 0.32001,0 0.48,-0.16 l 2.4,-0.16 v 3.85 c 0,0.96 0.15999,1.28 0.48,1.28 0.16,0 0.48,-0.16 0.8,-0.8 0.16001,-0.64 0.16001,-1.28 0.32,-2.08 0,-0.65 0,-1.29 0,-2.09 v -8.17 -0.32 c 0.16,-0.32 0.16,-0.48 0,-0.48 0,-0.16 -0.15999,-0.32 -0.48,-0.32 l -0.64,-0.32 c -0.48,-0.160003 -0.8,-0.160003 -0.96001,-0.160003 -0.47999,-0.159996 -0.79998,-0.159996 -0.95999,-0.159996 -0.64,-0.160004 -1.11999,-0.160004 -1.28,0 -0.16,0.159996 0.16001,0.319999 0.64,0.639999 0.64,0.16 1.12,0.48 1.44,0.64 0.48,0.32 0.64,0.48 0.64,0.64 z m -9.46,15.86 v 0.16 c 0.16,0.64 0.16,1.44 0.16,2.57 0.16,0.64 0.16,1.44 0.16,2.56 l 0.17,0.96 c 0,0.8 0.16,1.28 0.48,1.12 0.32,-0.16 0.48,-0.64 0.8,-1.6 1.28,0 2.88001,-0.16 4.65,-0.16 2.08,0 3.52,0 4.16,0 0.16,0 0.32001,0 0.48,0 0.16,-0.16 0.32,-0.16 0.16,-0.32 0,-0.16 0,-0.32 -0.31999,-0.48 -0.16001,0 -0.48001,-0.16 -0.96001,-0.16 l 0.16,-0.8 0.80001,-4.49 0.15999,-0.32 c 0.16,-0.16 0.16,-0.32 0.16,-0.48 0,-0.16 -0.31999,-0.16 -0.8,-0.16 -0.48,0 -0.80001,0 -1.12,0 -0.16,0 -0.32001,0 -0.48,0 l -0.16,0.16 -7.05,0.32 -0.48,-0.16 c -0.32,-0.16 -0.48,-0.16 -0.64,-0.16 -0.49,-0.16 -0.81,-0.16 -1.29,-0.16 -0.96,-0.16 -1.28,0 -1.44,0.16 0,0.16 0.16,0.32 0.64,0.32 0.48,0.16 0.8,0.32 1.12,0.48 0.32,0.32 0.48,0.48 0.48,0.64 z m 1.61,0 v -0.16 c 0,-0.16 0,-0.16 0,-0.16 0,0 0.16,-0.16 0.16,-0.16 h 0.16 l 2.07999,-0.16 c 1.28002,0 2.25,-0.16 2.89002,-0.16 1.11999,0 1.91999,0 2.39999,0 0,0.64 0,1.6 -0.16,2.72 0,1.13 0,2.09 0,2.89 -0.16001,0 -0.32,0 -0.48,0 0,0 -0.16,0 -0.32001,0 l -0.64,0.16 -5.92999,0.16 z" /></g><g
           transform="translate(145.48,100.41)"
           id="g32"><path
             id="path34"
             style="fill:#000000;fill-opacity:1;fill-rule:nonzero;stroke:#000000;stroke-width:0.32100001;stroke-linecap:butt;stroke-linejoin:miter;stroke-miterlimit:10;stroke-dasharray:none;stroke-opacity:1"
             d="M 0,0 V 0.8 H 3.85 V 22.59 H 0 v 0.799999 H 5.45 V 0 Z" /></g><g
           transform="translate(185.23,101.37)"
           id="g36"><path
             id="path38"
             style="fill:#000000;fill-opacity:1;fill-rule:nonzero;stroke:#000000;stroke-width:0.32100001;stroke-linecap:butt;stroke-linejoin:miter;stroke-miterlimit:10;stroke-dasharray:none;stroke-opacity:1"
             d="M 0,0 H -0.16 C -2.4,0 -4.49,0.16 -6.25,0.16 -8.5,0.16 -10.1,0 -10.9,-0.16 c -0.48,-0.16 -0.64,-0.16 -0.8,0 0,0.16 0.16,0.32 0.64,0.48 0.96,0.48 1.6,0.8 1.92,0.96 0.32,0 0.48,0 0.81,-0.16 0.16,0 0.16,0 0.32,-0.16 0.16,0 0.32,0 0.48,0 L 0.64,0.64 c -1.6,1.61 -4.01,3.21 -6.73,4.49 -2.41,1.12 -4.81,2.08 -7.21,2.72 -0.64,0 -0.81,0.16 -0.81,0.32 0.17,0 0.49,0 1.13,0 1.76,-0.32 3.36,-0.8 4.97,-1.28 1.76,-0.64 3.52,-1.28 4.8,-2.08 1.45,0.32 2.89,0.8 4.49,1.12 1.77,0.32 3.05,0.64 3.85,0.8 0.8,0.16 1.28,0 1.44,-0.32 C 6.73,6.09 6.41,5.61 5.61,5.45 4.65,5.13 4.17,4.97 3.69,4.97 c -0.32,0 -0.64,0 -0.97,0 -0.16,0 -0.32,0.16 -0.48,0.16 -0.16,0 -0.32,0 -0.64,0 C 0.8,4.97 0,4.81 -0.64,4.81 -1.28,4.65 -1.92,4.49 -2.24,4.33 -1.6,4.01 -0.8,3.53 0.16,2.89 1.12,2.25 1.92,1.44 2.72,0.8 L 3.05,0.64 C 3.37,0.32 3.69,0.16 3.69,0 c 0,-0.16 -0.32,-0.32 -1.29,-0.32 -0.48,0 -0.8,0 -0.96,0 -0.16,0 -0.32,0 -0.48,0 C 0.8,-0.16 0.8,-0.16 0.64,-0.16 0.48,-0.16 0.16,-0.16 0,0 Z m -3.85,13.78 -0.16,0.16 c -1.6,0.16 -2.72,0.64 -3.52,1.6 -0.64,0.8 -0.97,1.759999 -0.8,2.89 0,0.959999 0.48,1.92 1.44,2.56 0.96,0.800001 2.24,1.28 3.68,1.28 1.45,0 2.73,-0.479999 3.69,-1.12 0.96,-0.8 1.44,-1.600001 1.44,-2.72 0.16,-0.970001 0,-1.93 -0.8,-2.73 -0.8,-0.96 -1.92,-1.6 -3.36,-1.76 v -0.32 c 0.16,-0.32 0.16,-0.48 0.16,-0.48 -0.16,-0.16 -0.48,-0.48 -1.13,-0.64 -0.48,-0.16 -0.64,0 -0.8,0 0,0.16 0.16,0.32 0.32,0.48 0.16,0.16 0.32,0.32 0.32,0.48 -0.16,0.16 -0.16,0.32 -0.48,0.32 z m 0.64,0.96 c 1.29,0 2.25,0.32 2.89,0.96 0.64,0.64 0.96,1.28 0.96,2.240001 0,0.809999 -0.32,1.449998 -0.96,2.09 C -0.96,20.67 -1.92,20.99 -3.21,20.99 -4.33,20.99 -5.29,20.67 -5.93,20.030001 -6.57,19.389999 -6.89,18.75 -6.89,17.940001 -6.89,16.98 -6.57,16.34 -5.93,15.7 c 0.64,-0.64 1.6,-0.96 2.72,-0.96 z M 3.53,10.1 H 2.56 l -4.16,0.16 c -3.69,0.16 -6.25,0.32 -7.7,0.32 -2.4,0 -4.16,-0.16 -4.97,-0.32 -0.64,-0.16 -0.8,-0.16 -0.96,0 0,0 0.16,0.32 0.48,0.48 1.45,0.64 2.25,1.12 2.73,1.12 0.32,0.16 0.48,0 0.8,-0.16 0.16,0 0.16,0 0.32,-0.16 0.16,0 0.32,0 0.48,-0.16 1.12,0 2.57,-0.16 4.17,-0.32 1.6,0 2.88,0 3.85,-0.16 h 1.92 c 1.76,0 3.2,0 4.17,0 1.6,0 3.04,0.16 4.16,0.16 0.16,0 0.32,0 0.65,-0.16 C 8.66,10.74 8.82,10.58 8.82,10.42 8.82,10.26 8.66,10.1 8.5,9.94 8.33,9.77 8.01,9.61 7.69,9.61 6.73,9.45 6.09,9.45 5.61,9.45 c -0.32,0 -0.64,0.16 -0.96,0.32 -0.16,0 -0.32,0 -0.32,0.17 -0.32,0 -0.48,0 -0.8,0.16 z" /></g><g
           transform="translate(199.5,104.9)"
           id="g40"><path
             id="path42"
             style="fill:#000000;fill-opacity:1;fill-rule:nonzero;stroke:#000000;stroke-width:0.32100001;stroke-linecap:butt;stroke-linejoin:miter;stroke-miterlimit:10;stroke-dasharray:none;stroke-opacity:1"
             d="M 0,0 V 8.17 C 0,9.13 0.32,9.45 0.64,9.13 0.96,8.97 1.28,8.49 1.44,7.53 L 8.33,7.37 c 0,0.48 0.16,0.96 0.32,1.12 0.16,0.16 0.32,0.16 0.48,0 C 9.29,8.33 9.45,8.01 9.61,7.53 9.77,7.05 9.93,6.57 9.93,6.08 V 3.52 -1.76 -2.09 c 0,-0.16 0,-0.32 0,-0.48 0,0 -0.16,-0.16 -0.48,-0.32 -0.48,-0.16 -0.96,-0.16 -1.28,-0.32 -0.48,0 -0.96,-0.16 -1.44,-0.16 -0.48,0 -0.8,0.16 -0.8,0.32 0,0.16 0.16,0.32 0.64,0.48 0.64,0.16 0.96,0.32 1.28,0.64 0.32,0.17 0.48,0.33 0.48,0.65 v 2.4 L 1.6,1.28 v -1.76 -0.48 c 0,-0.16 0,-0.32 0,-0.48 C 1.44,-1.6 1.28,-1.76 0.96,-1.76 0.48,-1.93 0,-1.93 -0.49,-2.09 c -0.32,0 -0.64,0 -0.96,0 -0.64,0 -0.96,0 -0.96,0.16 0,0.17 0.16,0.33 0.64,0.49 0.48,0.32 0.8,0.48 1.12,0.64 C -0.33,-0.48 0,-0.32 0,0 Z M 1.6,2.08 8.33,1.92 V 6.57 L 1.6,6.73 Z m 13.62,-4.97 v 11.7 c 0,0.8 0.16,1.12 0.48,1.28 0.16,0 0.48,-0.32 0.8,-0.96 0,-0.64 0.17,-1.28 0.33,-1.92 0,-0.64 0,-1.29 0,-1.93 l 0.16,-8.33 v -0.48 c 0,-0.16 0,-0.32 0,-0.48 -0.16,-0.16 -0.32,-0.32 -0.81,-0.48 h -0.16 c -0.48,-0.16 -0.8,-0.32 -1.12,-0.32 -0.48,-0.16 -1.12,-0.16 -1.76,-0.32 -0.64,0.16 -0.96,0.16 -0.96,0.32 0,0.16 0.16,0.32 0.64,0.48 0.8,0.32 1.28,0.48 1.76,0.8 0.48,0.32 0.64,0.48 0.64,0.64 z m -4,14.26 c 1.12,0 2.08,0.48 2.72,1.12 0.64,0.64 0.96,1.28 0.96,2.25 0,0.8 -0.32,1.6 -0.96,2.24 -0.64,0.640001 -1.6,0.960001 -2.72,0.960001 -1.29,0 -2.09,-0.32 -2.89,-0.960001 -0.64,-0.64 -0.96,-1.44 -0.96,-2.24 0,-0.97 0.32,-1.61 0.96,-2.25 0.8,-0.64 1.6,-1.12 2.89,-1.12 z m -0.65,-0.8 c -1.6,0.16 -2.88,0.8 -3.68,1.76 -0.64,0.8 -0.96,1.76 -0.96,2.89 0.16,1.12 0.64,2.079999 1.44,2.720001 0.96,0.799999 2.24,1.279998 3.69,1.279998 1.6,0 2.72,-0.319999 3.68,-1.119999 0.96,-0.800001 1.44,-1.6 1.6,-2.72 0.16,-1.13 -0.16,-2.09 -0.96,-2.89 -0.64,-0.96 -1.92,-1.6 -3.36,-1.92 0,0 0,-0.16 0,-0.16 0.16,-0.16 0.16,-0.16 0.16,-0.16 C 12.34,9.93 12.5,9.77 12.34,9.61 12.18,9.45 11.7,9.29 11.06,8.97 c -0.49,-0.16 -0.65,-0.16 -0.81,0 0,0.16 0.16,0.32 0.32,0.48 0.16,0.16 0.32,0.48 0.32,0.8 0,0.16 -0.16,0.32 -0.32,0.32 z" /></g><g
           transform="translate(230.75,105.38)"
           id="g44"><path
             id="path46"
             style="fill:#000000;fill-opacity:1;fill-rule:nonzero;stroke:#000000;stroke-width:0.32100001;stroke-linecap:butt;stroke-linejoin:miter;stroke-miterlimit:10;stroke-dasharray:none;stroke-opacity:1"
             d="m 0,0 -0.16,0.32 c -0.96,2.4 -2.24,4.48 -3.69,6.25 -1.12,1.44 -2.56,2.88 -4.16,4.16 -0.32,0.32 -0.48,0.48 -0.48,0.48 0,0.16 0.32,0.16 0.8,-0.16 1.12,-0.64 2.24,-1.44 3.36,-2.56 1.45,-1.12 2.73,-2.56 3.85,-4.01 l 4.65,5.77 c 0,0.16 0.32,0.32 0.48,0.32 0.16,0 0.32,0 0.48,-0.16 C 5.29,10.25 5.45,10.09 5.29,9.77 5.29,9.45 5.13,9.13 4.97,8.81 4.49,8.17 4.17,7.53 3.85,7.37 3.69,7.21 3.53,7.05 3.21,6.89 3.05,6.73 3.05,6.73 2.89,6.73 2.73,6.57 2.73,6.57 2.57,6.41 1.92,5.93 1.44,5.6 1.12,5.12 0.48,4.64 0.16,4.16 0,3.84 V 3.68 C 0.48,2.88 0.8,2.24 1.12,1.76 1.44,1.12 1.76,0.48 1.92,0 2.08,-0.32 2.25,-0.48 2.25,-0.64 2.08,-0.8 1.92,-0.96 1.6,-1.12 V -1.28 C 1.12,-1.44 0.8,-1.6 0.48,-1.76 0,-2.08 -0.48,-2.24 -0.96,-2.41 c -0.64,-0.16 -1.12,-0.16 -1.44,0 -0.16,0.17 0,0.33 0.64,0.81 0.64,0.32 1.12,0.8 1.44,0.96 C -0.16,-0.32 0,-0.16 0,0 Z M 10.42,-3.21 V 3.68 H 8.66 c -1.13,0 -1.77,0 -2.25,0 -0.64,0 -1.28,0 -2.08,0 -0.48,0 -0.64,0 -0.8,0.16 0,0 0.16,0.16 0.64,0.48 0.64,0.32 1.12,0.48 1.44,0.48 0.16,0 0.32,0 0.48,0 0,-0.16 0.16,-0.16 0.16,-0.16 0.16,0 0.32,0 0.48,-0.16 h 3.69 v 12.979999 c 0,0.800001 0.16,1.280001 0.32,1.76 0.16,0.320002 0.32,0.320002 0.64,0 C 11.54,18.9 11.7,18.42 11.86,17.620001 12.02,16.82 12.02,15.86 12.02,14.58 l 0.16,-17.79 c 0,-0.16 0,-0.32 0,-0.48 0,0 0,-0.16 0,-0.32 0.16,-0.32 0.16,-0.48 0,-0.64 0,-0.16 -0.32,-0.32 -0.8,-0.48 -0.32,-0.16 -0.96,-0.32 -1.6,-0.48 -0.8,-0.16 -1.44,-0.32 -1.92,-0.16 -0.65,0 -0.81,0.16 -0.65,0.32 0.16,0.16 0.32,0.32 0.81,0.48 0.64,0.16 1.28,0.48 1.6,0.8 0.64,0.32 0.8,0.64 0.8,0.96 z" /></g><g
           transform="translate(255.11,106.5)"
           id="g48"><path
             id="path50"
             style="fill:#000000;fill-opacity:1;fill-rule:nonzero;stroke:#000000;stroke-width:0.32100001;stroke-linecap:butt;stroke-linejoin:miter;stroke-miterlimit:10;stroke-dasharray:none;stroke-opacity:1"
             d="m 0,0 0.16,1.92 c 0,0.48 0.17,0.96 0.49,1.12 0.48,0.32 0.96,0.32 1.6,0.32 1.6,0 3.2,0 4.97,0 2.08,0 3.84,-0.16 5.45,-0.16 0.32,0 0.48,-0.16 0.64,-0.32 C 13.47,2.72 13.47,2.56 13.47,2.4 13.31,2.24 13.15,2.08 12.99,1.92 12.67,1.92 12.35,1.76 11.87,1.76 11.22,1.76 10.74,1.92 10.42,1.92 10.1,2.08 9.94,2.08 9.62,2.24 9.46,2.4 9.3,2.4 9.14,2.4 8.98,2.56 8.66,2.56 8.34,2.72 H 2.89 c -0.32,0 -0.64,0 -0.8,-0.16 C 1.93,2.56 1.93,2.4 1.77,2.08 V 0 c 0,-0.16 0,-0.16 0,-0.32 0.16,0 0.16,0 0.16,0 l 0.32,-0.16 2.72,-0.16 c 1.45,0 2.57,0 3.37,-0.16 1.28,0 2.4,0 3.37,0 0.8,0 1.12,-0.16 1.12,-0.48 -0.16,-0.16 -0.48,-0.48 -1.12,-0.48 l 0.96,-2.73 c 0,0 0.16,-0.16 0.16,-0.16 0,-0.16 0.16,-0.16 0.16,-0.32 0.32,-0.16 0.32,-0.48 0.32,-0.48 -0.16,-0.16 -0.48,-0.32 -1.28,-0.32 -0.48,0 -0.81,0 -1.13,0 0,0 -0.16,0.16 -0.32,0.16 -0.16,0 -0.32,0 -0.32,0 -0.16,0.16 -0.32,0.16 -0.48,0.16 H 8.34 c -2.24,0.16 -4.01,0.16 -5.13,0.16 -1.92,0 -3.37,0 -4.17,-0.16 -0.48,-0.16 -0.8,-0.16 -0.8,0 0,0.16 0.16,0.16 0.32,0.48 1.12,0.48 1.77,0.8 2.09,0.96 0.32,0 0.64,0 0.8,-0.16 0.16,0 0.32,-0.16 0.48,-0.16 0.16,0 0.32,0 0.48,-0.16 h 2.24 c 1.29,-0.16 2.25,-0.16 2.89,-0.16 1.28,0 2.24,-0.16 3.36,-0.16 l -0.32,3.05 -0.64,0.16 c -0.16,0 -0.32,0 -0.32,0.16 -0.16,0 -0.32,0 -0.48,0 H 8.66 c -1.6,0 -2.72,0.16 -3.37,0.16 -1.28,0.16 -2.4,0.16 -3.2,0.16 -0.48,-0.16 -0.96,-0.16 -1.44,-0.32 -0.65,0 -1.29,0 -1.93,-0.16 -0.48,0.16 -0.64,0.32 -0.64,0.48 -0.16,0.16 0,0.16 0.32,0.32 0.48,0 0.96,0.16 1.12,0.32 C -0.16,-0.32 0,-0.16 0,0 Z m 1.61,7.05 v 8.01 c 0,0.96 0.16,1.44 0.32,1.6 0.32,0 0.48,-0.32 0.8,-0.96 0.32,-0.8 0.48,-2.08 0.48,-3.53 0,-0.8 0.16,-2.24 0.16,-4.16 V 6.89 L 9.62,6.57 v 9.93 c 0,0.799999 0.16,1.280001 0.32,1.280001 0.32,0 0.64,-0.320002 0.8,-1.120001 0.16,-0.64 0.32,-2.08 0.48,-4.17 0,-1.6 0,-3.52 0,-5.92 0.81,0 1.61,0 2.41,0 0.48,0.16 1.28,0.16 2.08,0.16 l 1.28,0.16 c 0.33,0 0.649999,-0.16 0.809999,-0.32 0.16,0 0.320002,-0.16 0.320002,-0.32 0.16,-0.16 0,-0.32 -0.160002,-0.48 -0.16,-0.16 -0.32,-0.32 -0.639999,-0.32 -0.97,-0.16 -1.77,-0.16 -2.25,-0.16 -0.32,0 -0.48,0.16 -0.8,0.16 -0.16,0.16 -0.32,0.16 -0.48,0.16 -0.16,0.16 -0.8,0.16 -1.76,0.32 -1.77,0 -6.09,0.16 -12.99,0.32 -1.28,0.16 -2.56,0 -3.68,-0.32 -0.64,0 -0.97,-0.16 -0.97,0 -0.16,0.16 0,0.32 0.33,0.64 1.28,0.64 2.08,0.96 2.56,1.12 0.32,0 0.64,0 0.96,-0.16 0.16,0 0.16,0 0.32,-0.16 0.16,0 0.32,0 0.48,0 L 0,7.21 Z" /></g></g></g><g
       id="g52"><path
         id="path54"
         style="fill:#000000;fill-opacity:1;fill-rule:nonzero;stroke:none"
         d="m 32.16,32.32 h 730.07999 v 0.639999 H 32.16 Z" /></g><g
       transform="translate(762.09998,32.330002)"
       id="g56"><g
         clip-path="url(#clipPath62)"
         id="g58"><path
           id="path64"
           style="fill:#000000;fill-opacity:1;fill-rule:evenodd;stroke:none"
           d="M 0,0 H 0.64 V 0.64 H 0 Z m -729.94,0.64 h 0.64001 V 1058.5601 H -729.94 Z" /></g></g><g
       id="g66"><path
         id="path68"
         style="fill:#000000;fill-opacity:1;fill-rule:nonzero;stroke:none"
         d="m 762.08002,32.959999 h 0.63995 V 1090.88 h -0.63995 z" /></g><g
       id="g70"><path
         id="path72"
         style="fill:#000000;fill-opacity:1;fill-rule:evenodd;stroke:none"
         d="m 32.16,1090.88 h 730.55997 v 0.64 H 32.16 Z" /></g></g></svg>